<svg viewBox="0 0 1680 200" xmlns="http://www.w3.org/2000/svg"><path d="m779.49 40h72v36l-24 24 24 24v36h-72v-36l24-24-24-24zm60 87-24-24-24 24v21h48zm-24-30 24-24v-21h-48v21zm-12-33h24v4.5l-12 12-12-12z" fill="#ccc"/><path d="m982.55 40h-89.88a15.07 15.07 0 0 0 -15.06 15v89.92a15.08 15.08 0 0 0 15.06 15.08h89.88a15.08 15.08 0 0 0 15.06-15.07v-89.87a15.07 15.07 0 0 0 -15.06-15.06zm11.06 105a11.09 11.09 0 0 1 -11.06 11.07h-89.88a11.07 11.07 0 0 1 -11.06-11.07v-89.94a11.08 11.08 0 0 1 11.06-11h89.88a11.08 11.08 0 0 1 11.06 11z" fill="#ccc"/><path d="m965.61 52h-56a22 22 0 0 0 0 44h56a22 22 0 0 0 0-44zm-12.61 4a22 22 0 0 0 0 36h-43.39a18 18 0 0 1 0-36m56 36a18 18 0 1 1 18-18 18 18 0 0 1 -18 18z" fill="#ccc"/><path d="m965.61 104h-56a22 22 0 0 0 0 44h56a22 22 0 0 0 0-44zm-74 22a18 18 0 1 1 18 18 18 18 0 0 1 -18-18z" fill="#ccc"/><path d="m700.5 60v80" fill="none" stroke="#ccc" stroke-miterlimit="10"/><path d="m154.17 41.5h-78a19.5 19.5 0 0 0 -19.5 19.5v78a19.5 19.5 0 0 0 19.5 19.5h78a19.5 19.5 0 0 0 19.5-19.5v-78a19.5 19.5 0 0 0 -19.5-19.5zm2 59.26a3.24 3.24 0 0 1 -4.59 0 3.21 3.21 0 0 1 -.95-2.09l-8.82-8.82v-19.93a1.63 1.63 0 0 0 -1.63-1.63h-3.25a1.63 1.63 0 0 0 -1.62 1.63v13.68l-4.88-5.13-15-15a1.62 1.62 0 0 0 -2.3 0l-34.54 34.42a1.64 1.64 0 0 0 0 2.3l2.3 2.3a1.64 1.64 0 0 0 2.3 0l26.43-26.43a6.49 6.49 0 0 1 9.19 0l26.43 26.43a6.51 6.51 0 0 1 0 9.19l-2.3 2.3a6.49 6.49 0 0 1 -9.19 0l-18.39-18.39a1.64 1.64 0 0 0 -2.3 0l-18.38 18.41a1.62 1.62 0 0 0 0 2.3l2.3 2.29a1.61 1.61 0 0 0 2.29 0l10.35-10.34a6.49 6.49 0 0 1 9.19 0l10.34 10.34a6.51 6.51 0 0 1 0 9.2l-11.15 11.1a3.21 3.21 0 0 1 -1 2.09 3.25 3.25 0 1 1 -2.5-5.54l11.12-11.12a1.62 1.62 0 0 0 0-2.3l-10.34-10.34a1.62 1.62 0 0 0 -2.3 0l-10.26 10.32a6.49 6.49 0 0 1 -9.19 0l-2.3-2.3a6.49 6.49 0 0 1 0-9.19l18.39-18.38a6.49 6.49 0 0 1 9.19 0l18.38 18.38a1.64 1.64 0 0 0 2.3 0l2.3-2.3a1.64 1.64 0 0 0 0-2.3l-26.43-26.4a1.62 1.62 0 0 0 -2.3 0l-26.43 26.42a6.49 6.49 0 0 1 -9.19 0l-2.3-2.29a6.52 6.52 0 0 1 0-9.2l34.48-34.44a6.49 6.49 0 0 1 9.19 0l11.6 11.61v-1.69a6.5 6.5 0 0 1 6.5-6.5h3.25a6.5 6.5 0 0 1 6.5 6.5v17.91l7.4 7.39a3.25 3.25 0 0 1 2.09 5.54z" fill="#f9b213"/><path d="m612.42 61h11.68v3.65h-3.71v11h-4.29v-11h-3.68zm13.09 0h4.72l3.34 7.78 3.43-7.78h4.72v14.62h-3.85v-8.23l-2.77 6.81h-2.92l-2.77-6.81v8.23h-3.85z" fill="#f9b213"/><path d="m271.65 61v78h-17.34v-32h-34v32h-17.39v-78h17.35v30.75h34v-30.75zm10.65 39c0-22.41 16.77-39 39.65-39s39.64 16.48 39.64 39-16.87 39-39.59 39-39.7-16.59-39.7-39zm62.09.39c0-14.19-9.63-23.9-22.44-23.9s-22.45 9.71-22.45 23.9 9.64 23.89 22.45 23.89 22.44-9.71 22.44-23.89zm24.41-.39c0-22.41 16.77-39 39.65-39s39.64 16.48 39.64 39-16.87 39-39.64 39-39.65-16.59-39.65-39zm62.09.39c0-14.19-9.63-23.9-22.44-23.9s-22.45 9.71-22.45 23.9 9.64 23.89 22.45 23.89 22.44-9.71 22.44-23.89zm96.58 17.33c0 13.48-10.28 21.28-30 21.28h-38.73v-78h36.61c18.74 0 28.38 8.13 28.38 20.28a18.86 18.86 0 0 1 -10 17.16c8.39 2.79 13.74 9.47 13.74 19.28zm-50.76-41.66v17.61h16.5c8.1 0 12.5-3 12.5-8.86s-4.4-8.75-12.5-8.75zm32.59 39.47c0-6.29-4.61-9.28-13.22-9.28h-19.37v18.46h19.37c8.61 0 13.22-2.78 13.22-9.18zm23.38 14.74 5.69-13.14a41.52 41.52 0 0 0 23.91 7.87c9.94 0 14-3.44 14-8.08 0-14.11-42.13-4.41-42.13-32.42 0-12.82 9.94-23.49 30.53-23.49 9.11 0 18.43 2.26 25.16 6.68l-5.18 13.25a39.67 39.67 0 0 0 -20.1-5.94c-9.94 0-13.77 3.87-13.77 8.61 0 13.9 42.13 4.31 42.13 32 0 12.61-10 23.38-30.74 23.38-11.49.01-23.08-3.55-29.5-8.72z" fill="#f9b213"/><g fill="#ccc"><path d="m1029 83.69v-37.69h10.64a17.12 17.12 0 0 1 8.69 2.17 14.68 14.68 0 0 1 5.84 6.19 20.15 20.15 0 0 1 2.08 9.21v2.43a20.24 20.24 0 0 1 -2.06 9.34 14.49 14.49 0 0 1 -5.87 6.16 18.32 18.32 0 0 1 -8.89 2.2zm5-33.62v29.55h5.23q5.74 0 8.94-3.57t3.19-10.18v-2.2q0-6.42-3-10t-8.55-3.61z"/><path d="m1085.07 66.27h-16.33v13.35h19v4.07h-23.93v-37.69h23.68v4.06h-18.72v12.15h16.33z"/><path d="m1098.89 79.62h17.86v4.07h-22.85v-37.69h5z"/><path d="m1143.71 73.83h-15.78l-3.55 9.86h-5.12l14.39-37.69h4.35l14.41 37.68h-5.1zm-14.28-4.07h12.81l-6.42-17.62z"/><path d="m1166.54 64.93 9.83-18.93h5.63l-13 23.62v14.07h-5v-14.06l-13-23.62h5.69z"/><path d="m1040.12 130.49q-6.39-1.83-9.3-4.51a8.64 8.64 0 0 1 -2.91-6.62 9.1 9.1 0 0 1 3.56-7.36 14.13 14.13 0 0 1 9.25-2.91 15.47 15.47 0 0 1 6.92 1.5 11.34 11.34 0 0 1 4.71 4.14 10.6 10.6 0 0 1 1.67 5.77h-5a6.9 6.9 0 0 0 -2.17-5.39 8.87 8.87 0 0 0 -6.13-2 9 9 0 0 0 -5.73 1.62 5.39 5.39 0 0 0 -2.06 4.5 4.86 4.86 0 0 0 2 3.9 19 19 0 0 0 6.65 2.92 30.91 30.91 0 0 1 7.35 2.91 11.17 11.17 0 0 1 3.94 3.72 9.5 9.5 0 0 1 1.28 5 8.81 8.81 0 0 1 -3.57 7.34q-3.58 2.76-9.55 2.75a17.74 17.74 0 0 1 -7.25-1.48 12.27 12.27 0 0 1 -5.19-4.08 10 10 0 0 1 -1.82-5.87h5a6.49 6.49 0 0 0 2.52 5.39 10.65 10.65 0 0 0 6.75 2 9.78 9.78 0 0 0 6-1.6 5.23 5.23 0 0 0 2.09-4.38 5.1 5.1 0 0 0 -1.94-4.28q-1.97-1.47-7.07-2.98z"/><path d="m1068.59 135.41.72 5 1.07-4.48 7.45-26.29h4.17l7.27 26.29 1 4.55.8-5.07 5.85-25.77h5l-9.13 37.68h-4.53l-7.77-27.46-.49-2.86-.59 2.87-8 27.46h-4.53l-9.11-37.68h5z"/><path d="m1112.82 147.29h-5v-37.68h5z"/><path d="m1147.18 113.67h-12.11v33.62h-4.94v-33.62h-12.13v-4.06h29.14z"/><path d="m1179.76 135.33a13.83 13.83 0 0 1 -4.41 9.23c-2.47 2.16-5.77 3.24-9.87 3.24a13.27 13.27 0 0 1 -10.7-4.78c-2.68-3.2-4-7.46-4-12.81v-3.63a21.43 21.43 0 0 1 1.88-9.23 14 14 0 0 1 5.32-6.13 14.82 14.82 0 0 1 8-2.13 13.65 13.65 0 0 1 9.63 3.35 14 14 0 0 1 4.21 9.28h-5q-.64-4.52-2.81-6.54a8.48 8.48 0 0 0 -6-2 8.91 8.91 0 0 0 -7.47 3.53c-1.8 2.34-2.7 5.69-2.7 10v3.65q0 6.14 2.56 9.77a8.3 8.3 0 0 0 7.17 3.62q4.14 0 6.35-1.87t2.94-6.54z"/><path d="m1215.5 147.29h-5v-17.42h-19v17.42h-5v-37.68h5v16.2h19v-16.2h5z"/></g></svg>